<?xml version="1.0" encoding="utf-8" standalone="no"?>
<!DOCTYPE svg PUBLIC "-//W3C//DTD SVG 1.1//EN"
  "http://www.w3.org/Graphics/SVG/1.1/DTD/svg11.dtd">
<svg xmlns:xlink="http://www.w3.org/1999/xlink" width="851.006719pt" height="561.767813pt" viewBox="0 0 851.006719 561.767813" xmlns="http://www.w3.org/2000/svg" version="1.1">
 <metadata>
  <rdf:RDF xmlns:dc="http://purl.org/dc/elements/1.1/" xmlns:cc="http://creativecommons.org/ns#" xmlns:rdf="http://www.w3.org/1999/02/22-rdf-syntax-ns#">
   <cc:Work>
    <dc:type rdf:resource="http://purl.org/dc/dcmitype/StillImage"/>
    <dc:date>2025-04-07T11:01:48.774504</dc:date>
    <dc:format>image/svg+xml</dc:format>
    <dc:creator>
     <cc:Agent>
      <dc:title>Matplotlib v3.8.4, https://matplotlib.org/</dc:title>
     </cc:Agent>
    </dc:creator>
   </cc:Work>
  </rdf:RDF>
 </metadata>
 <defs>
  <style type="text/css">*{stroke-linejoin: round; stroke-linecap: butt}</style>
 </defs>
 <g id="figure_1">
  <g id="patch_1">
   <path d="M 0 561.767813 
L 851.006719 561.767813 
L 851.006719 0 
L 0 0 
z
" style="fill: #ffffff"/>
  </g>
  <g id="axes_1">
   <g id="patch_2">
    <path d="M 60.30875 523.506563 
L 709.28875 523.506563 
L 709.28875 23.837812 
L 60.30875 23.837812 
z
" style="fill: #ffffff"/>
   </g>
   <g id="matplotlib.axis_1">
    <g id="xtick_1">
     <g id="text_1">
      <!-- G0 -->
      <g style="fill: #262626" transform="translate(157.082187 536.124688) scale(0.12 -0.12)">
       <defs>
        <path id="DejaVuSans-47" d="M 3809 666 
L 3809 1919 
L 2778 1919 
L 2778 2438 
L 4434 2438 
L 4434 434 
Q 4069 175 3628 42 
Q 3188 -91 2688 -91 
Q 1594 -91 976 548 
Q 359 1188 359 2328 
Q 359 3472 976 4111 
Q 1594 4750 2688 4750 
Q 3144 4750 3555 4637 
Q 3966 4525 4313 4306 
L 4313 3634 
Q 3963 3931 3569 4081 
Q 3175 4231 2741 4231 
Q 1884 4231 1454 3753 
Q 1025 3275 1025 2328 
Q 1025 1384 1454 906 
Q 1884 428 2741 428 
Q 3075 428 3337 486 
Q 3600 544 3809 666 
z
" transform="scale(0.015625)"/>
        <path id="DejaVuSans-30" d="M 2034 4250 
Q 1547 4250 1301 3770 
Q 1056 3291 1056 2328 
Q 1056 1369 1301 889 
Q 1547 409 2034 409 
Q 2525 409 2770 889 
Q 3016 1369 3016 2328 
Q 3016 3291 2770 3770 
Q 2525 4250 2034 4250 
z
M 2034 4750 
Q 2819 4750 3233 4129 
Q 3647 3509 3647 2328 
Q 3647 1150 3233 529 
Q 2819 -91 2034 -91 
Q 1250 -91 836 529 
Q 422 1150 422 2328 
Q 422 3509 836 4129 
Q 1250 4750 2034 4750 
z
" transform="scale(0.015625)"/>
       </defs>
       <use xlink:href="#DejaVuSans-47"/>
       <use xlink:href="#DejaVuSans-30" x="77.490234"/>
      </g>
     </g>
    </g>
    <g id="xtick_2">
     <g id="text_2">
      <!-- G1 -->
      <g style="fill: #262626" transform="translate(316.536733 536.124688) scale(0.12 -0.12)">
       <defs>
        <path id="DejaVuSans-31" d="M 794 531 
L 1825 531 
L 1825 4091 
L 703 3866 
L 703 4441 
L 1819 4666 
L 2450 4666 
L 2450 531 
L 3481 531 
L 3481 0 
L 794 0 
L 794 531 
z
" transform="scale(0.015625)"/>
       </defs>
       <use xlink:href="#DejaVuSans-47"/>
       <use xlink:href="#DejaVuSans-31" x="77.490234"/>
      </g>
     </g>
    </g>
    <g id="xtick_3">
     <g id="text_3">
      <!-- G2 -->
      <g style="fill: #262626" transform="translate(475.991278 536.124688) scale(0.12 -0.12)">
       <defs>
        <path id="DejaVuSans-32" d="M 1228 531 
L 3431 531 
L 3431 0 
L 469 0 
L 469 531 
Q 828 903 1448 1529 
Q 2069 2156 2228 2338 
Q 2531 2678 2651 2914 
Q 2772 3150 2772 3378 
Q 2772 3750 2511 3984 
Q 2250 4219 1831 4219 
Q 1534 4219 1204 4116 
Q 875 4013 500 3803 
L 500 4441 
Q 881 4594 1212 4672 
Q 1544 4750 1819 4750 
Q 2544 4750 2975 4387 
Q 3406 4025 3406 3419 
Q 3406 3131 3298 2873 
Q 3191 2616 2906 2266 
Q 2828 2175 2409 1742 
Q 1991 1309 1228 531 
z
" transform="scale(0.015625)"/>
       </defs>
       <use xlink:href="#DejaVuSans-47"/>
       <use xlink:href="#DejaVuSans-32" x="77.490234"/>
      </g>
     </g>
    </g>
    <g id="xtick_4">
     <g id="text_4">
      <!-- G9 -->
      <g style="fill: #262626" transform="translate(635.445824 536.124688) scale(0.12 -0.12)">
       <defs>
        <path id="DejaVuSans-39" d="M 703 97 
L 703 672 
Q 941 559 1184 500 
Q 1428 441 1663 441 
Q 2288 441 2617 861 
Q 2947 1281 2994 2138 
Q 2813 1869 2534 1725 
Q 2256 1581 1919 1581 
Q 1219 1581 811 2004 
Q 403 2428 403 3163 
Q 403 3881 828 4315 
Q 1253 4750 1959 4750 
Q 2769 4750 3195 4129 
Q 3622 3509 3622 2328 
Q 3622 1225 3098 567 
Q 2575 -91 1691 -91 
Q 1453 -91 1209 -44 
Q 966 3 703 97 
z
M 1959 2075 
Q 2384 2075 2632 2365 
Q 2881 2656 2881 3163 
Q 2881 3666 2632 3958 
Q 2384 4250 1959 4250 
Q 1534 4250 1286 3958 
Q 1038 3666 1038 3163 
Q 1038 2656 1286 2365 
Q 1534 2075 1959 2075 
z
" transform="scale(0.015625)"/>
       </defs>
       <use xlink:href="#DejaVuSans-47"/>
       <use xlink:href="#DejaVuSans-39" x="77.490234"/>
      </g>
     </g>
    </g>
    <g id="text_5">
     <!-- Timeline_Group -->
     <g style="fill: #262626" transform="translate(338.026875 551.738438) scale(0.12 -0.12)">
      <defs>
       <path id="DejaVuSans-54" d="M -19 4666 
L 3928 4666 
L 3928 4134 
L 2272 4134 
L 2272 0 
L 1638 0 
L 1638 4134 
L -19 4134 
L -19 4666 
z
" transform="scale(0.015625)"/>
       <path id="DejaVuSans-69" d="M 603 3500 
L 1178 3500 
L 1178 0 
L 603 0 
L 603 3500 
z
M 603 4863 
L 1178 4863 
L 1178 4134 
L 603 4134 
L 603 4863 
z
" transform="scale(0.015625)"/>
       <path id="DejaVuSans-6d" d="M 3328 2828 
Q 3544 3216 3844 3400 
Q 4144 3584 4550 3584 
Q 5097 3584 5394 3201 
Q 5691 2819 5691 2113 
L 5691 0 
L 5113 0 
L 5113 2094 
Q 5113 2597 4934 2840 
Q 4756 3084 4391 3084 
Q 3944 3084 3684 2787 
Q 3425 2491 3425 1978 
L 3425 0 
L 2847 0 
L 2847 2094 
Q 2847 2600 2669 2842 
Q 2491 3084 2119 3084 
Q 1678 3084 1418 2786 
Q 1159 2488 1159 1978 
L 1159 0 
L 581 0 
L 581 3500 
L 1159 3500 
L 1159 2956 
Q 1356 3278 1631 3431 
Q 1906 3584 2284 3584 
Q 2666 3584 2933 3390 
Q 3200 3197 3328 2828 
z
" transform="scale(0.015625)"/>
       <path id="DejaVuSans-65" d="M 3597 1894 
L 3597 1613 
L 953 1613 
Q 991 1019 1311 708 
Q 1631 397 2203 397 
Q 2534 397 2845 478 
Q 3156 559 3463 722 
L 3463 178 
Q 3153 47 2828 -22 
Q 2503 -91 2169 -91 
Q 1331 -91 842 396 
Q 353 884 353 1716 
Q 353 2575 817 3079 
Q 1281 3584 2069 3584 
Q 2775 3584 3186 3129 
Q 3597 2675 3597 1894 
z
M 3022 2063 
Q 3016 2534 2758 2815 
Q 2500 3097 2075 3097 
Q 1594 3097 1305 2825 
Q 1016 2553 972 2059 
L 3022 2063 
z
" transform="scale(0.015625)"/>
       <path id="DejaVuSans-6c" d="M 603 4863 
L 1178 4863 
L 1178 0 
L 603 0 
L 603 4863 
z
" transform="scale(0.015625)"/>
       <path id="DejaVuSans-6e" d="M 3513 2113 
L 3513 0 
L 2938 0 
L 2938 2094 
Q 2938 2591 2744 2837 
Q 2550 3084 2163 3084 
Q 1697 3084 1428 2787 
Q 1159 2491 1159 1978 
L 1159 0 
L 581 0 
L 581 3500 
L 1159 3500 
L 1159 2956 
Q 1366 3272 1645 3428 
Q 1925 3584 2291 3584 
Q 2894 3584 3203 3211 
Q 3513 2838 3513 2113 
z
" transform="scale(0.015625)"/>
       <path id="DejaVuSans-5f" d="M 3263 -1063 
L 3263 -1509 
L -63 -1509 
L -63 -1063 
L 3263 -1063 
z
" transform="scale(0.015625)"/>
       <path id="DejaVuSans-72" d="M 2631 2963 
Q 2534 3019 2420 3045 
Q 2306 3072 2169 3072 
Q 1681 3072 1420 2755 
Q 1159 2438 1159 1844 
L 1159 0 
L 581 0 
L 581 3500 
L 1159 3500 
L 1159 2956 
Q 1341 3275 1631 3429 
Q 1922 3584 2338 3584 
Q 2397 3584 2469 3576 
Q 2541 3569 2628 3553 
L 2631 2963 
z
" transform="scale(0.015625)"/>
       <path id="DejaVuSans-6f" d="M 1959 3097 
Q 1497 3097 1228 2736 
Q 959 2375 959 1747 
Q 959 1119 1226 758 
Q 1494 397 1959 397 
Q 2419 397 2687 759 
Q 2956 1122 2956 1747 
Q 2956 2369 2687 2733 
Q 2419 3097 1959 3097 
z
M 1959 3584 
Q 2709 3584 3137 3096 
Q 3566 2609 3566 1747 
Q 3566 888 3137 398 
Q 2709 -91 1959 -91 
Q 1206 -91 779 398 
Q 353 888 353 1747 
Q 353 2609 779 3096 
Q 1206 3584 1959 3584 
z
" transform="scale(0.015625)"/>
       <path id="DejaVuSans-75" d="M 544 1381 
L 544 3500 
L 1119 3500 
L 1119 1403 
Q 1119 906 1312 657 
Q 1506 409 1894 409 
Q 2359 409 2629 706 
Q 2900 1003 2900 1516 
L 2900 3500 
L 3475 3500 
L 3475 0 
L 2900 0 
L 2900 538 
Q 2691 219 2414 64 
Q 2138 -91 1772 -91 
Q 1169 -91 856 284 
Q 544 659 544 1381 
z
M 1991 3584 
L 1991 3584 
z
" transform="scale(0.015625)"/>
       <path id="DejaVuSans-70" d="M 1159 525 
L 1159 -1331 
L 581 -1331 
L 581 3500 
L 1159 3500 
L 1159 2969 
Q 1341 3281 1617 3432 
Q 1894 3584 2278 3584 
Q 2916 3584 3314 3078 
Q 3713 2572 3713 1747 
Q 3713 922 3314 415 
Q 2916 -91 2278 -91 
Q 1894 -91 1617 61 
Q 1341 213 1159 525 
z
M 3116 1747 
Q 3116 2381 2855 2742 
Q 2594 3103 2138 3103 
Q 1681 3103 1420 2742 
Q 1159 2381 1159 1747 
Q 1159 1113 1420 752 
Q 1681 391 2138 391 
Q 2594 391 2855 752 
Q 3116 1113 3116 1747 
z
" transform="scale(0.015625)"/>
      </defs>
      <use xlink:href="#DejaVuSans-54"/>
      <use xlink:href="#DejaVuSans-69" x="57.958984"/>
      <use xlink:href="#DejaVuSans-6d" x="85.742188"/>
      <use xlink:href="#DejaVuSans-65" x="183.154297"/>
      <use xlink:href="#DejaVuSans-6c" x="244.677734"/>
      <use xlink:href="#DejaVuSans-69" x="272.460938"/>
      <use xlink:href="#DejaVuSans-6e" x="300.244141"/>
      <use xlink:href="#DejaVuSans-65" x="363.623047"/>
      <use xlink:href="#DejaVuSans-5f" x="425.146484"/>
      <use xlink:href="#DejaVuSans-47" x="475.146484"/>
      <use xlink:href="#DejaVuSans-72" x="552.636719"/>
      <use xlink:href="#DejaVuSans-6f" x="591.5"/>
      <use xlink:href="#DejaVuSans-75" x="652.681641"/>
      <use xlink:href="#DejaVuSans-70" x="716.060547"/>
     </g>
    </g>
   </g>
   <g id="matplotlib.axis_2">
    <g id="ytick_1">
     <g id="text_6">
      <!-- 0 -->
      <g style="fill: #262626" transform="translate(43.81 509.675201) scale(0.11 -0.11)">
       <use xlink:href="#DejaVuSans-30"/>
      </g>
     </g>
    </g>
    <g id="ytick_2">
     <g id="text_7">
      <!-- 500 -->
      <g style="fill: #262626" transform="translate(29.8125 411.722831) scale(0.11 -0.11)">
       <defs>
        <path id="DejaVuSans-35" d="M 691 4666 
L 3169 4666 
L 3169 4134 
L 1269 4134 
L 1269 2991 
Q 1406 3038 1543 3061 
Q 1681 3084 1819 3084 
Q 2600 3084 3056 2656 
Q 3513 2228 3513 1497 
Q 3513 744 3044 326 
Q 2575 -91 1722 -91 
Q 1428 -91 1123 -41 
Q 819 9 494 109 
L 494 744 
Q 775 591 1075 516 
Q 1375 441 1709 441 
Q 2250 441 2565 725 
Q 2881 1009 2881 1497 
Q 2881 1984 2565 2268 
Q 2250 2553 1709 2553 
Q 1456 2553 1204 2497 
Q 953 2441 691 2322 
L 691 4666 
z
" transform="scale(0.015625)"/>
       </defs>
       <use xlink:href="#DejaVuSans-35"/>
       <use xlink:href="#DejaVuSans-30" x="63.623047"/>
       <use xlink:href="#DejaVuSans-30" x="127.246094"/>
      </g>
     </g>
    </g>
    <g id="ytick_3">
     <g id="text_8">
      <!-- 1000 -->
      <g style="fill: #262626" transform="translate(22.81375 313.770462) scale(0.11 -0.11)">
       <use xlink:href="#DejaVuSans-31"/>
       <use xlink:href="#DejaVuSans-30" x="63.623047"/>
       <use xlink:href="#DejaVuSans-30" x="127.246094"/>
       <use xlink:href="#DejaVuSans-30" x="190.869141"/>
      </g>
     </g>
    </g>
    <g id="ytick_4">
     <g id="text_9">
      <!-- 1500 -->
      <g style="fill: #262626" transform="translate(22.81375 215.818093) scale(0.11 -0.11)">
       <use xlink:href="#DejaVuSans-31"/>
       <use xlink:href="#DejaVuSans-35" x="63.623047"/>
       <use xlink:href="#DejaVuSans-30" x="127.246094"/>
       <use xlink:href="#DejaVuSans-30" x="190.869141"/>
      </g>
     </g>
    </g>
    <g id="ytick_5">
     <g id="text_10">
      <!-- 2000 -->
      <g style="fill: #262626" transform="translate(22.81375 117.865723) scale(0.11 -0.11)">
       <use xlink:href="#DejaVuSans-32"/>
       <use xlink:href="#DejaVuSans-30" x="63.623047"/>
       <use xlink:href="#DejaVuSans-30" x="127.246094"/>
       <use xlink:href="#DejaVuSans-30" x="190.869141"/>
      </g>
     </g>
    </g>
    <g id="text_11">
     <!-- ecDNA Count -->
     <g style="fill: #262626" transform="translate(16.318125 313.60125) rotate(-90) scale(0.12 -0.12)">
      <defs>
       <path id="DejaVuSans-63" d="M 3122 3366 
L 3122 2828 
Q 2878 2963 2633 3030 
Q 2388 3097 2138 3097 
Q 1578 3097 1268 2742 
Q 959 2388 959 1747 
Q 959 1106 1268 751 
Q 1578 397 2138 397 
Q 2388 397 2633 464 
Q 2878 531 3122 666 
L 3122 134 
Q 2881 22 2623 -34 
Q 2366 -91 2075 -91 
Q 1284 -91 818 406 
Q 353 903 353 1747 
Q 353 2603 823 3093 
Q 1294 3584 2113 3584 
Q 2378 3584 2631 3529 
Q 2884 3475 3122 3366 
z
" transform="scale(0.015625)"/>
       <path id="DejaVuSans-44" d="M 1259 4147 
L 1259 519 
L 2022 519 
Q 2988 519 3436 956 
Q 3884 1394 3884 2338 
Q 3884 3275 3436 3711 
Q 2988 4147 2022 4147 
L 1259 4147 
z
M 628 4666 
L 1925 4666 
Q 3281 4666 3915 4102 
Q 4550 3538 4550 2338 
Q 4550 1131 3912 565 
Q 3275 0 1925 0 
L 628 0 
L 628 4666 
z
" transform="scale(0.015625)"/>
       <path id="DejaVuSans-4e" d="M 628 4666 
L 1478 4666 
L 3547 763 
L 3547 4666 
L 4159 4666 
L 4159 0 
L 3309 0 
L 1241 3903 
L 1241 0 
L 628 0 
L 628 4666 
z
" transform="scale(0.015625)"/>
       <path id="DejaVuSans-41" d="M 2188 4044 
L 1331 1722 
L 3047 1722 
L 2188 4044 
z
M 1831 4666 
L 2547 4666 
L 4325 0 
L 3669 0 
L 3244 1197 
L 1141 1197 
L 716 0 
L 50 0 
L 1831 4666 
z
" transform="scale(0.015625)"/>
       <path id="DejaVuSans-20" transform="scale(0.015625)"/>
       <path id="DejaVuSans-43" d="M 4122 4306 
L 4122 3641 
Q 3803 3938 3442 4084 
Q 3081 4231 2675 4231 
Q 1875 4231 1450 3742 
Q 1025 3253 1025 2328 
Q 1025 1406 1450 917 
Q 1875 428 2675 428 
Q 3081 428 3442 575 
Q 3803 722 4122 1019 
L 4122 359 
Q 3791 134 3420 21 
Q 3050 -91 2638 -91 
Q 1578 -91 968 557 
Q 359 1206 359 2328 
Q 359 3453 968 4101 
Q 1578 4750 2638 4750 
Q 3056 4750 3426 4639 
Q 3797 4528 4122 4306 
z
" transform="scale(0.015625)"/>
       <path id="DejaVuSans-74" d="M 1172 4494 
L 1172 3500 
L 2356 3500 
L 2356 3053 
L 1172 3053 
L 1172 1153 
Q 1172 725 1289 603 
Q 1406 481 1766 481 
L 2356 481 
L 2356 0 
L 1766 0 
Q 1100 0 847 248 
Q 594 497 594 1153 
L 594 3053 
L 172 3053 
L 172 3500 
L 594 3500 
L 594 4494 
L 1172 4494 
z
" transform="scale(0.015625)"/>
      </defs>
      <use xlink:href="#DejaVuSans-65"/>
      <use xlink:href="#DejaVuSans-63" x="61.523438"/>
      <use xlink:href="#DejaVuSans-44" x="116.503906"/>
      <use xlink:href="#DejaVuSans-4e" x="193.505859"/>
      <use xlink:href="#DejaVuSans-41" x="268.310547"/>
      <use xlink:href="#DejaVuSans-20" x="336.71875"/>
      <use xlink:href="#DejaVuSans-43" x="368.505859"/>
      <use xlink:href="#DejaVuSans-6f" x="438.330078"/>
      <use xlink:href="#DejaVuSans-75" x="499.511719"/>
      <use xlink:href="#DejaVuSans-6e" x="562.890625"/>
      <use xlink:href="#DejaVuSans-74" x="626.269531"/>
     </g>
    </g>
   </g>
   <g id="patch_3">
    <path d="M 89.807841 465.629446 
L 121.69875 465.629446 
L 121.69875 420.473404 
L 89.807841 420.473404 
L 89.807841 465.629446 
z
" clip-path="url(#p35da77f06f)" style="fill: #a6f2a6; stroke: #6b6b6b; stroke-width: 1.5; stroke-linejoin: miter"/>
   </g>
   <g id="line2d_1">
    <path d="M 105.753295 465.629446 
L 105.753295 487.472824 
" clip-path="url(#p35da77f06f)" style="fill: none; stroke: #6b6b6b; stroke-width: 1.5"/>
   </g>
   <g id="line2d_2">
    <path d="M 105.753295 420.473404 
L 105.753295 353.865792 
" clip-path="url(#p35da77f06f)" style="fill: none; stroke: #6b6b6b; stroke-width: 1.5"/>
   </g>
   <g id="line2d_3">
    <path d="M 97.780568 487.472824 
L 113.726023 487.472824 
" clip-path="url(#p35da77f06f)" style="fill: none; stroke: #6b6b6b; stroke-width: 1.5; stroke-linecap: round"/>
   </g>
   <g id="line2d_4">
    <path d="M 97.780568 353.865792 
L 113.726023 353.865792 
" clip-path="url(#p35da77f06f)" style="fill: none; stroke: #6b6b6b; stroke-width: 1.5; stroke-linecap: round"/>
   </g>
   <g id="line2d_5"/>
   <g id="patch_4">
    <path d="M 129.671477 487.962586 
L 161.562386 487.962586 
L 161.562386 469.645493 
L 129.671477 469.645493 
L 129.671477 487.962586 
z
" clip-path="url(#p35da77f06f)" style="fill: #ecb279; stroke: #6b6b6b; stroke-width: 1.5; stroke-linejoin: miter"/>
   </g>
   <g id="line2d_6">
    <path d="M 145.616932 487.962586 
L 145.616932 500.598442 
" clip-path="url(#p35da77f06f)" style="fill: none; stroke: #6b6b6b; stroke-width: 1.5"/>
   </g>
   <g id="line2d_7">
    <path d="M 145.616932 469.645493 
L 145.616932 445.745115 
" clip-path="url(#p35da77f06f)" style="fill: none; stroke: #6b6b6b; stroke-width: 1.5"/>
   </g>
   <g id="line2d_8">
    <path d="M 137.644205 500.598442 
L 153.589659 500.598442 
" clip-path="url(#p35da77f06f)" style="fill: none; stroke: #6b6b6b; stroke-width: 1.5; stroke-linecap: round"/>
   </g>
   <g id="line2d_9">
    <path d="M 137.644205 445.745115 
L 153.589659 445.745115 
" clip-path="url(#p35da77f06f)" style="fill: none; stroke: #6b6b6b; stroke-width: 1.5; stroke-linecap: round"/>
   </g>
   <g id="line2d_10"/>
   <g id="patch_5">
    <path d="M 169.535114 476.796016 
L 201.426023 476.796016 
L 201.426023 440.749544 
L 169.535114 440.749544 
L 169.535114 476.796016 
z
" clip-path="url(#p35da77f06f)" style="fill: #a6ccf2; stroke: #6b6b6b; stroke-width: 1.5; stroke-linejoin: miter"/>
   </g>
   <g id="line2d_11">
    <path d="M 185.480568 476.796016 
L 185.480568 496.876252 
" clip-path="url(#p35da77f06f)" style="fill: none; stroke: #6b6b6b; stroke-width: 1.5"/>
   </g>
   <g id="line2d_12">
    <path d="M 185.480568 440.749544 
L 185.480568 390.108169 
" clip-path="url(#p35da77f06f)" style="fill: none; stroke: #6b6b6b; stroke-width: 1.5"/>
   </g>
   <g id="line2d_13">
    <path d="M 177.507841 496.876252 
L 193.453295 496.876252 
" clip-path="url(#p35da77f06f)" style="fill: none; stroke: #6b6b6b; stroke-width: 1.5; stroke-linecap: round"/>
   </g>
   <g id="line2d_14">
    <path d="M 177.507841 390.108169 
L 193.453295 390.108169 
" clip-path="url(#p35da77f06f)" style="fill: none; stroke: #6b6b6b; stroke-width: 1.5; stroke-linecap: round"/>
   </g>
   <g id="line2d_15"/>
   <g id="patch_6">
    <path d="M 209.39875 475.424683 
L 241.289659 475.424683 
L 241.289659 440.406711 
L 209.39875 440.406711 
L 209.39875 475.424683 
z
" clip-path="url(#p35da77f06f)" style="fill: #f2a6cc; stroke: #6b6b6b; stroke-width: 1.5; stroke-linejoin: miter"/>
   </g>
   <g id="line2d_16">
    <path d="M 225.344205 475.424683 
L 225.344205 493.154062 
" clip-path="url(#p35da77f06f)" style="fill: none; stroke: #6b6b6b; stroke-width: 1.5"/>
   </g>
   <g id="line2d_17">
    <path d="M 225.344205 440.406711 
L 225.344205 390.891788 
" clip-path="url(#p35da77f06f)" style="fill: none; stroke: #6b6b6b; stroke-width: 1.5"/>
   </g>
   <g id="line2d_18">
    <path d="M 217.371477 493.154062 
L 233.316932 493.154062 
" clip-path="url(#p35da77f06f)" style="fill: none; stroke: #6b6b6b; stroke-width: 1.5; stroke-linecap: round"/>
   </g>
   <g id="line2d_19">
    <path d="M 217.371477 390.891788 
L 233.316932 390.891788 
" clip-path="url(#p35da77f06f)" style="fill: none; stroke: #6b6b6b; stroke-width: 1.5; stroke-linecap: round"/>
   </g>
   <g id="line2d_20"/>
   <g id="patch_7">
    <path d="M 249.262386 465.629446 
L 281.153295 465.629446 
L 281.153295 420.473404 
L 249.262386 420.473404 
L 249.262386 465.629446 
z
" clip-path="url(#p35da77f06f)" style="fill: #a6f2a6; stroke: #6b6b6b; stroke-width: 1.5; stroke-linejoin: miter"/>
   </g>
   <g id="line2d_21">
    <path d="M 265.207841 465.629446 
L 265.207841 487.472824 
" clip-path="url(#p35da77f06f)" style="fill: none; stroke: #6b6b6b; stroke-width: 1.5"/>
   </g>
   <g id="line2d_22">
    <path d="M 265.207841 420.473404 
L 265.207841 353.865792 
" clip-path="url(#p35da77f06f)" style="fill: none; stroke: #6b6b6b; stroke-width: 1.5"/>
   </g>
   <g id="line2d_23">
    <path d="M 257.235114 487.472824 
L 273.180568 487.472824 
" clip-path="url(#p35da77f06f)" style="fill: none; stroke: #6b6b6b; stroke-width: 1.5; stroke-linecap: round"/>
   </g>
   <g id="line2d_24">
    <path d="M 257.235114 353.865792 
L 273.180568 353.865792 
" clip-path="url(#p35da77f06f)" style="fill: none; stroke: #6b6b6b; stroke-width: 1.5; stroke-linecap: round"/>
   </g>
   <g id="line2d_25"/>
   <g id="patch_8">
    <path d="M 289.126023 488.452348 
L 321.016932 488.452348 
L 321.016932 463.866303 
L 289.126023 463.866303 
L 289.126023 488.452348 
z
" clip-path="url(#p35da77f06f)" style="fill: #ecb279; stroke: #6b6b6b; stroke-width: 1.5; stroke-linejoin: miter"/>
   </g>
   <g id="line2d_26">
    <path d="M 305.071477 488.452348 
L 305.071477 499.423013 
" clip-path="url(#p35da77f06f)" style="fill: none; stroke: #6b6b6b; stroke-width: 1.5"/>
   </g>
   <g id="line2d_27">
    <path d="M 305.071477 463.866303 
L 305.071477 427.917784 
" clip-path="url(#p35da77f06f)" style="fill: none; stroke: #6b6b6b; stroke-width: 1.5"/>
   </g>
   <g id="line2d_28">
    <path d="M 297.09875 499.423013 
L 313.044205 499.423013 
" clip-path="url(#p35da77f06f)" style="fill: none; stroke: #6b6b6b; stroke-width: 1.5; stroke-linecap: round"/>
   </g>
   <g id="line2d_29">
    <path d="M 297.09875 427.917784 
L 313.044205 427.917784 
" clip-path="url(#p35da77f06f)" style="fill: none; stroke: #6b6b6b; stroke-width: 1.5; stroke-linecap: round"/>
   </g>
   <g id="line2d_30"/>
   <g id="patch_9">
    <path d="M 328.989659 476.698064 
L 360.880568 476.698064 
L 360.880568 436.537592 
L 328.989659 436.537592 
L 328.989659 476.698064 
z
" clip-path="url(#p35da77f06f)" style="fill: #a6ccf2; stroke: #6b6b6b; stroke-width: 1.5; stroke-linejoin: miter"/>
   </g>
   <g id="line2d_31">
    <path d="M 344.935114 476.698064 
L 344.935114 495.700823 
" clip-path="url(#p35da77f06f)" style="fill: none; stroke: #6b6b6b; stroke-width: 1.5"/>
   </g>
   <g id="line2d_32">
    <path d="M 344.935114 436.537592 
L 344.935114 378.941599 
" clip-path="url(#p35da77f06f)" style="fill: none; stroke: #6b6b6b; stroke-width: 1.5"/>
   </g>
   <g id="line2d_33">
    <path d="M 336.962386 495.700823 
L 352.907841 495.700823 
" clip-path="url(#p35da77f06f)" style="fill: none; stroke: #6b6b6b; stroke-width: 1.5; stroke-linecap: round"/>
   </g>
   <g id="line2d_34">
    <path d="M 336.962386 378.941599 
L 352.907841 378.941599 
" clip-path="url(#p35da77f06f)" style="fill: none; stroke: #6b6b6b; stroke-width: 1.5; stroke-linecap: round"/>
   </g>
   <g id="line2d_35"/>
   <g id="patch_10">
    <path d="M 368.853295 480.028444 
L 400.744205 480.028444 
L 400.744205 456.274995 
L 368.853295 456.274995 
L 368.853295 480.028444 
z
" clip-path="url(#p35da77f06f)" style="fill: #f2a6cc; stroke: #6b6b6b; stroke-width: 1.5; stroke-linejoin: miter"/>
   </g>
   <g id="line2d_36">
    <path d="M 384.79875 480.028444 
L 384.79875 499.423013 
" clip-path="url(#p35da77f06f)" style="fill: none; stroke: #6b6b6b; stroke-width: 1.5"/>
   </g>
   <g id="line2d_37">
    <path d="M 384.79875 456.274995 
L 384.79875 422.040642 
" clip-path="url(#p35da77f06f)" style="fill: none; stroke: #6b6b6b; stroke-width: 1.5"/>
   </g>
   <g id="line2d_38">
    <path d="M 376.826023 499.423013 
L 392.771477 499.423013 
" clip-path="url(#p35da77f06f)" style="fill: none; stroke: #6b6b6b; stroke-width: 1.5; stroke-linecap: round"/>
   </g>
   <g id="line2d_39">
    <path d="M 376.826023 422.040642 
L 392.771477 422.040642 
" clip-path="url(#p35da77f06f)" style="fill: none; stroke: #6b6b6b; stroke-width: 1.5; stroke-linecap: round"/>
   </g>
   <g id="line2d_40"/>
   <g id="patch_11">
    <path d="M 408.716932 465.629446 
L 440.607841 465.629446 
L 440.607841 420.473404 
L 408.716932 420.473404 
L 408.716932 465.629446 
z
" clip-path="url(#p35da77f06f)" style="fill: #a6f2a6; stroke: #6b6b6b; stroke-width: 1.5; stroke-linejoin: miter"/>
   </g>
   <g id="line2d_41">
    <path d="M 424.662386 465.629446 
L 424.662386 487.472824 
" clip-path="url(#p35da77f06f)" style="fill: none; stroke: #6b6b6b; stroke-width: 1.5"/>
   </g>
   <g id="line2d_42">
    <path d="M 424.662386 420.473404 
L 424.662386 353.865792 
" clip-path="url(#p35da77f06f)" style="fill: none; stroke: #6b6b6b; stroke-width: 1.5"/>
   </g>
   <g id="line2d_43">
    <path d="M 416.689659 487.472824 
L 432.635114 487.472824 
" clip-path="url(#p35da77f06f)" style="fill: none; stroke: #6b6b6b; stroke-width: 1.5; stroke-linecap: round"/>
   </g>
   <g id="line2d_44">
    <path d="M 416.689659 353.865792 
L 432.635114 353.865792 
" clip-path="url(#p35da77f06f)" style="fill: none; stroke: #6b6b6b; stroke-width: 1.5; stroke-linecap: round"/>
   </g>
   <g id="line2d_45"/>
   <g id="patch_12">
    <path d="M 448.580568 480.028444 
L 480.471477 480.028444 
L 480.471477 454.756733 
L 448.580568 454.756733 
L 448.580568 480.028444 
z
" clip-path="url(#p35da77f06f)" style="fill: #ecb279; stroke: #6b6b6b; stroke-width: 1.5; stroke-linejoin: miter"/>
   </g>
   <g id="line2d_46">
    <path d="M 464.526023 480.028444 
L 464.526023 498.247585 
" clip-path="url(#p35da77f06f)" style="fill: none; stroke: #6b6b6b; stroke-width: 1.5"/>
   </g>
   <g id="line2d_47">
    <path d="M 464.526023 454.756733 
L 464.526023 419.689785 
" clip-path="url(#p35da77f06f)" style="fill: none; stroke: #6b6b6b; stroke-width: 1.5"/>
   </g>
   <g id="line2d_48">
    <path d="M 456.553295 498.247585 
L 472.49875 498.247585 
" clip-path="url(#p35da77f06f)" style="fill: none; stroke: #6b6b6b; stroke-width: 1.5; stroke-linecap: round"/>
   </g>
   <g id="line2d_49">
    <path d="M 456.553295 419.689785 
L 472.49875 419.689785 
" clip-path="url(#p35da77f06f)" style="fill: none; stroke: #6b6b6b; stroke-width: 1.5; stroke-linecap: round"/>
   </g>
   <g id="line2d_50"/>
   <g id="patch_13">
    <path d="M 488.444205 473.122802 
L 520.335114 473.122802 
L 520.335114 439.231282 
L 488.444205 439.231282 
L 488.444205 473.122802 
z
" clip-path="url(#p35da77f06f)" style="fill: #a6ccf2; stroke: #6b6b6b; stroke-width: 1.5; stroke-linejoin: miter"/>
   </g>
   <g id="line2d_51">
    <path d="M 504.389659 473.122802 
L 504.389659 497.463966 
" clip-path="url(#p35da77f06f)" style="fill: none; stroke: #6b6b6b; stroke-width: 1.5"/>
   </g>
   <g id="line2d_52">
    <path d="M 504.389659 439.231282 
L 504.389659 392.459026 
" clip-path="url(#p35da77f06f)" style="fill: none; stroke: #6b6b6b; stroke-width: 1.5"/>
   </g>
   <g id="line2d_53">
    <path d="M 496.416932 497.463966 
L 512.362386 497.463966 
" clip-path="url(#p35da77f06f)" style="fill: none; stroke: #6b6b6b; stroke-width: 1.5; stroke-linecap: round"/>
   </g>
   <g id="line2d_54">
    <path d="M 496.416932 392.459026 
L 512.362386 392.459026 
" clip-path="url(#p35da77f06f)" style="fill: none; stroke: #6b6b6b; stroke-width: 1.5; stroke-linecap: round"/>
   </g>
   <g id="line2d_55"/>
   <g id="patch_14">
    <path d="M 528.307841 475.326731 
L 560.19875 475.326731 
L 560.19875 441.631115 
L 528.307841 441.631115 
L 528.307841 475.326731 
z
" clip-path="url(#p35da77f06f)" style="fill: #f2a6cc; stroke: #6b6b6b; stroke-width: 1.5; stroke-linejoin: miter"/>
   </g>
   <g id="line2d_56">
    <path d="M 544.253295 475.326731 
L 544.253295 498.835299 
" clip-path="url(#p35da77f06f)" style="fill: none; stroke: #6b6b6b; stroke-width: 1.5"/>
   </g>
   <g id="line2d_57">
    <path d="M 544.253295 441.631115 
L 544.253295 395.985311 
" clip-path="url(#p35da77f06f)" style="fill: none; stroke: #6b6b6b; stroke-width: 1.5"/>
   </g>
   <g id="line2d_58">
    <path d="M 536.280568 498.835299 
L 552.226023 498.835299 
" clip-path="url(#p35da77f06f)" style="fill: none; stroke: #6b6b6b; stroke-width: 1.5; stroke-linecap: round"/>
   </g>
   <g id="line2d_59">
    <path d="M 536.280568 395.985311 
L 552.226023 395.985311 
" clip-path="url(#p35da77f06f)" style="fill: none; stroke: #6b6b6b; stroke-width: 1.5; stroke-linecap: round"/>
   </g>
   <g id="line2d_60"/>
   <g id="patch_15">
    <path d="M 568.171477 465.629446 
L 600.062386 465.629446 
L 600.062386 420.473404 
L 568.171477 420.473404 
L 568.171477 465.629446 
z
" clip-path="url(#p35da77f06f)" style="fill: #a6f2a6; stroke: #6b6b6b; stroke-width: 1.5; stroke-linejoin: miter"/>
   </g>
   <g id="line2d_61">
    <path d="M 584.116932 465.629446 
L 584.116932 487.472824 
" clip-path="url(#p35da77f06f)" style="fill: none; stroke: #6b6b6b; stroke-width: 1.5"/>
   </g>
   <g id="line2d_62">
    <path d="M 584.116932 420.473404 
L 584.116932 353.865792 
" clip-path="url(#p35da77f06f)" style="fill: none; stroke: #6b6b6b; stroke-width: 1.5"/>
   </g>
   <g id="line2d_63">
    <path d="M 576.144205 487.472824 
L 592.089659 487.472824 
" clip-path="url(#p35da77f06f)" style="fill: none; stroke: #6b6b6b; stroke-width: 1.5; stroke-linecap: round"/>
   </g>
   <g id="line2d_64">
    <path d="M 576.144205 353.865792 
L 592.089659 353.865792 
" clip-path="url(#p35da77f06f)" style="fill: none; stroke: #6b6b6b; stroke-width: 1.5; stroke-linecap: round"/>
   </g>
   <g id="line2d_65"/>
   <g id="patch_16">
    <path d="M 608.035114 483.309849 
L 639.926023 483.309849 
L 639.926023 450.936591 
L 608.035114 450.936591 
L 608.035114 483.309849 
z
" clip-path="url(#p35da77f06f)" style="fill: #ecb279; stroke: #6b6b6b; stroke-width: 1.5; stroke-linejoin: miter"/>
   </g>
   <g id="line2d_66">
    <path d="M 623.980568 483.309849 
L 623.980568 499.423013 
" clip-path="url(#p35da77f06f)" style="fill: none; stroke: #6b6b6b; stroke-width: 1.5"/>
   </g>
   <g id="line2d_67">
    <path d="M 623.980568 450.936591 
L 623.980568 408.719119 
" clip-path="url(#p35da77f06f)" style="fill: none; stroke: #6b6b6b; stroke-width: 1.5"/>
   </g>
   <g id="line2d_68">
    <path d="M 616.007841 499.423013 
L 631.953295 499.423013 
" clip-path="url(#p35da77f06f)" style="fill: none; stroke: #6b6b6b; stroke-width: 1.5; stroke-linecap: round"/>
   </g>
   <g id="line2d_69">
    <path d="M 616.007841 408.719119 
L 631.953295 408.719119 
" clip-path="url(#p35da77f06f)" style="fill: none; stroke: #6b6b6b; stroke-width: 1.5; stroke-linecap: round"/>
   </g>
   <g id="line2d_70"/>
   <g id="patch_17">
    <path d="M 647.89875 483.16292 
L 679.789659 483.16292 
L 679.789659 449.2714 
L 647.89875 449.2714 
L 647.89875 483.16292 
z
" clip-path="url(#p35da77f06f)" style="fill: #a6ccf2; stroke: #6b6b6b; stroke-width: 1.5; stroke-linejoin: miter"/>
   </g>
   <g id="line2d_71">
    <path d="M 663.844205 483.16292 
L 663.844205 500.794347 
" clip-path="url(#p35da77f06f)" style="fill: none; stroke: #6b6b6b; stroke-width: 1.5"/>
   </g>
   <g id="line2d_72">
    <path d="M 663.844205 449.2714 
L 663.844205 401.862453 
" clip-path="url(#p35da77f06f)" style="fill: none; stroke: #6b6b6b; stroke-width: 1.5"/>
   </g>
   <g id="line2d_73">
    <path d="M 655.871477 500.794347 
L 671.816932 500.794347 
" clip-path="url(#p35da77f06f)" style="fill: none; stroke: #6b6b6b; stroke-width: 1.5; stroke-linecap: round"/>
   </g>
   <g id="line2d_74">
    <path d="M 655.871477 401.862453 
L 671.816932 401.862453 
" clip-path="url(#p35da77f06f)" style="fill: none; stroke: #6b6b6b; stroke-width: 1.5; stroke-linecap: round"/>
   </g>
   <g id="line2d_75"/>
   <g id="line2d_76">
    <path d="M 145.616932 210.267619 
L 145.616932 207.583724 
L 225.344205 207.583724 
L 225.344205 210.267619 
" clip-path="url(#p35da77f06f)" style="fill: none; stroke: #1a1a1a; stroke-width: 1.2; stroke-linecap: round"/>
   </g>
   <g id="line2d_77">
    <path d="M 145.616932 183.42867 
L 145.616932 180.744775 
L 185.480568 180.744775 
L 185.480568 183.42867 
" clip-path="url(#p35da77f06f)" style="fill: none; stroke: #1a1a1a; stroke-width: 1.2; stroke-linecap: round"/>
   </g>
   <g id="line2d_78">
    <path d="M 225.344205 156.58972 
L 225.344205 153.905825 
L 185.480568 153.905825 
L 185.480568 156.58972 
" clip-path="url(#p35da77f06f)" style="fill: none; stroke: #1a1a1a; stroke-width: 1.2; stroke-linecap: round"/>
   </g>
   <g id="line2d_79">
    <path d="M 344.935114 156.58972 
L 344.935114 153.905825 
L 384.79875 153.905825 
L 384.79875 156.58972 
" clip-path="url(#p35da77f06f)" style="fill: none; stroke: #1a1a1a; stroke-width: 1.2; stroke-linecap: round"/>
   </g>
   <g id="line2d_80">
    <path d="M 344.935114 129.750771 
L 344.935114 127.066876 
L 305.071477 127.066876 
L 305.071477 129.750771 
" clip-path="url(#p35da77f06f)" style="fill: none; stroke: #1a1a1a; stroke-width: 1.2; stroke-linecap: round"/>
   </g>
   <g id="line2d_81">
    <path d="M 384.79875 102.911822 
L 384.79875 100.227927 
L 305.071477 100.227927 
L 305.071477 102.911822 
" clip-path="url(#p35da77f06f)" style="fill: none; stroke: #1a1a1a; stroke-width: 1.2; stroke-linecap: round"/>
   </g>
   <g id="line2d_82">
    <path d="M 464.526023 102.911822 
L 464.526023 100.227927 
L 504.389659 100.227927 
L 504.389659 102.911822 
" clip-path="url(#p35da77f06f)" style="fill: none; stroke: #1a1a1a; stroke-width: 1.2; stroke-linecap: round"/>
   </g>
   <g id="line2d_83">
    <path d="M 464.526023 76.072873 
L 464.526023 73.388978 
L 544.253295 73.388978 
L 544.253295 76.072873 
" clip-path="url(#p35da77f06f)" style="fill: none; stroke: #1a1a1a; stroke-width: 1.2; stroke-linecap: round"/>
   </g>
   <g id="line2d_84">
    <path d="M 504.389659 49.233923 
L 504.389659 46.550028 
L 544.253295 46.550028 
L 544.253295 49.233923 
" clip-path="url(#p35da77f06f)" style="fill: none; stroke: #1a1a1a; stroke-width: 1.2; stroke-linecap: round"/>
   </g>
   <g id="line2d_85">
    <path d="M 89.807841 447.60621 
L 121.69875 447.60621 
" clip-path="url(#p35da77f06f)" style="fill: none; stroke: #6b6b6b; stroke-width: 1.5"/>
   </g>
   <g id="line2d_86">
    <path d="M 129.671477 480.812063 
L 161.562386 480.812063 
" clip-path="url(#p35da77f06f)" style="fill: none; stroke: #6b6b6b; stroke-width: 1.5"/>
   </g>
   <g id="line2d_87">
    <path d="M 169.535114 459.850256 
L 201.426023 459.850256 
" clip-path="url(#p35da77f06f)" style="fill: none; stroke: #6b6b6b; stroke-width: 1.5"/>
   </g>
   <g id="line2d_88">
    <path d="M 209.39875 462.88678 
L 241.289659 462.88678 
" clip-path="url(#p35da77f06f)" style="fill: none; stroke: #6b6b6b; stroke-width: 1.5"/>
   </g>
   <g id="line2d_89">
    <path d="M 249.262386 447.60621 
L 281.153295 447.60621 
" clip-path="url(#p35da77f06f)" style="fill: none; stroke: #6b6b6b; stroke-width: 1.5"/>
   </g>
   <g id="line2d_90">
    <path d="M 289.126023 479.048921 
L 321.016932 479.048921 
" clip-path="url(#p35da77f06f)" style="fill: none; stroke: #6b6b6b; stroke-width: 1.5"/>
   </g>
   <g id="line2d_91">
    <path d="M 328.989659 460.82978 
L 360.880568 460.82978 
" clip-path="url(#p35da77f06f)" style="fill: none; stroke: #6b6b6b; stroke-width: 1.5"/>
   </g>
   <g id="line2d_92">
    <path d="M 368.853295 470.429112 
L 400.744205 470.429112 
" clip-path="url(#p35da77f06f)" style="fill: none; stroke: #6b6b6b; stroke-width: 1.5"/>
   </g>
   <g id="line2d_93">
    <path d="M 408.716932 447.60621 
L 440.607841 447.60621 
" clip-path="url(#p35da77f06f)" style="fill: none; stroke: #6b6b6b; stroke-width: 1.5"/>
   </g>
   <g id="line2d_94">
    <path d="M 448.580568 471.408636 
L 480.471477 471.408636 
" clip-path="url(#p35da77f06f)" style="fill: none; stroke: #6b6b6b; stroke-width: 1.5"/>
   </g>
   <g id="line2d_95">
    <path d="M 488.444205 457.499399 
L 520.335114 457.499399 
" clip-path="url(#p35da77f06f)" style="fill: none; stroke: #6b6b6b; stroke-width: 1.5"/>
   </g>
   <g id="line2d_96">
    <path d="M 528.307841 460.633875 
L 560.19875 460.633875 
" clip-path="url(#p35da77f06f)" style="fill: none; stroke: #6b6b6b; stroke-width: 1.5"/>
   </g>
   <g id="line2d_97">
    <path d="M 568.171477 447.60621 
L 600.062386 447.60621 
" clip-path="url(#p35da77f06f)" style="fill: none; stroke: #6b6b6b; stroke-width: 1.5"/>
   </g>
   <g id="line2d_98">
    <path d="M 608.035114 465.041732 
L 639.926023 465.041732 
" clip-path="url(#p35da77f06f)" style="fill: none; stroke: #6b6b6b; stroke-width: 1.5"/>
   </g>
   <g id="line2d_99">
    <path d="M 647.89875 473.955397 
L 679.789659 473.955397 
" clip-path="url(#p35da77f06f)" style="fill: none; stroke: #6b6b6b; stroke-width: 1.5"/>
   </g>
   <g id="patch_18">
    <path d="M 60.30875 523.506563 
L 60.30875 23.837812 
" style="fill: none; stroke: #262626; stroke-width: 1.25; stroke-linejoin: miter; stroke-linecap: square"/>
   </g>
   <g id="patch_19">
    <path d="M 709.28875 523.506563 
L 709.28875 23.837812 
" style="fill: none; stroke: #262626; stroke-width: 1.25; stroke-linejoin: miter; stroke-linecap: square"/>
   </g>
   <g id="patch_20">
    <path d="M 60.30875 523.506563 
L 709.28875 523.506563 
" style="fill: none; stroke: #262626; stroke-width: 1.25; stroke-linejoin: miter; stroke-linecap: square"/>
   </g>
   <g id="patch_21">
    <path d="M 60.30875 23.837812 
L 709.28875 23.837812 
" style="fill: none; stroke: #262626; stroke-width: 1.25; stroke-linejoin: miter; stroke-linecap: square"/>
   </g>
   <g id="text_12">
    <!-- **** -->
    <g style="fill: #1a1a1a" transform="translate(173.480568 205.088099) scale(0.12 -0.12)">
     <defs>
      <path id="DejaVuSans-2a" d="M 3009 3897 
L 1888 3291 
L 3009 2681 
L 2828 2375 
L 1778 3009 
L 1778 1831 
L 1422 1831 
L 1422 3009 
L 372 2375 
L 191 2681 
L 1313 3291 
L 191 3897 
L 372 4206 
L 1422 3572 
L 1422 4750 
L 1778 4750 
L 1778 3572 
L 2828 4206 
L 3009 3897 
z
" transform="scale(0.015625)"/>
     </defs>
     <use xlink:href="#DejaVuSans-2a"/>
     <use xlink:href="#DejaVuSans-2a" x="50"/>
     <use xlink:href="#DejaVuSans-2a" x="100"/>
     <use xlink:href="#DejaVuSans-2a" x="150"/>
    </g>
   </g>
   <g id="text_13">
    <!-- **** -->
    <g style="fill: #1a1a1a" transform="translate(153.54875 178.24915) scale(0.12 -0.12)">
     <use xlink:href="#DejaVuSans-2a"/>
     <use xlink:href="#DejaVuSans-2a" x="50"/>
     <use xlink:href="#DejaVuSans-2a" x="100"/>
     <use xlink:href="#DejaVuSans-2a" x="150"/>
    </g>
   </g>
   <g id="text_14">
    <!-- ns -->
    <g style="fill: #1a1a1a" transform="translate(198.484261 151.4102) scale(0.12 -0.12)">
     <defs>
      <path id="DejaVuSans-73" d="M 2834 3397 
L 2834 2853 
Q 2591 2978 2328 3040 
Q 2066 3103 1784 3103 
Q 1356 3103 1142 2972 
Q 928 2841 928 2578 
Q 928 2378 1081 2264 
Q 1234 2150 1697 2047 
L 1894 2003 
Q 2506 1872 2764 1633 
Q 3022 1394 3022 966 
Q 3022 478 2636 193 
Q 2250 -91 1575 -91 
Q 1294 -91 989 -36 
Q 684 19 347 128 
L 347 722 
Q 666 556 975 473 
Q 1284 391 1588 391 
Q 1994 391 2212 530 
Q 2431 669 2431 922 
Q 2431 1156 2273 1281 
Q 2116 1406 1581 1522 
L 1381 1569 
Q 847 1681 609 1914 
Q 372 2147 372 2553 
Q 372 3047 722 3315 
Q 1072 3584 1716 3584 
Q 2034 3584 2315 3537 
Q 2597 3491 2834 3397 
z
" transform="scale(0.015625)"/>
     </defs>
     <use xlink:href="#DejaVuSans-6e"/>
     <use xlink:href="#DejaVuSans-73" x="63.378906"/>
    </g>
   </g>
   <g id="text_15">
    <!-- **** -->
    <g style="fill: #1a1a1a" transform="translate(352.866932 151.4102) scale(0.12 -0.12)">
     <use xlink:href="#DejaVuSans-2a"/>
     <use xlink:href="#DejaVuSans-2a" x="50"/>
     <use xlink:href="#DejaVuSans-2a" x="100"/>
     <use xlink:href="#DejaVuSans-2a" x="150"/>
    </g>
   </g>
   <g id="text_16">
    <!-- **** -->
    <g style="fill: #1a1a1a" transform="translate(313.003295 124.571251) scale(0.12 -0.12)">
     <use xlink:href="#DejaVuSans-2a"/>
     <use xlink:href="#DejaVuSans-2a" x="50"/>
     <use xlink:href="#DejaVuSans-2a" x="100"/>
     <use xlink:href="#DejaVuSans-2a" x="150"/>
    </g>
   </g>
   <g id="text_17">
    <!-- **** -->
    <g style="fill: #1a1a1a" transform="translate(332.935114 97.732302) scale(0.12 -0.12)">
     <use xlink:href="#DejaVuSans-2a"/>
     <use xlink:href="#DejaVuSans-2a" x="50"/>
     <use xlink:href="#DejaVuSans-2a" x="100"/>
     <use xlink:href="#DejaVuSans-2a" x="150"/>
    </g>
   </g>
   <g id="text_18">
    <!-- **** -->
    <g style="fill: #1a1a1a" transform="translate(472.457841 97.732302) scale(0.12 -0.12)">
     <use xlink:href="#DejaVuSans-2a"/>
     <use xlink:href="#DejaVuSans-2a" x="50"/>
     <use xlink:href="#DejaVuSans-2a" x="100"/>
     <use xlink:href="#DejaVuSans-2a" x="150"/>
    </g>
   </g>
   <g id="text_19">
    <!-- **** -->
    <g style="fill: #1a1a1a" transform="translate(492.389659 70.893353) scale(0.12 -0.12)">
     <use xlink:href="#DejaVuSans-2a"/>
     <use xlink:href="#DejaVuSans-2a" x="50"/>
     <use xlink:href="#DejaVuSans-2a" x="100"/>
     <use xlink:href="#DejaVuSans-2a" x="150"/>
    </g>
   </g>
   <g id="text_20">
    <!-- ns -->
    <g style="fill: #1a1a1a" transform="translate(517.393352 44.054403) scale(0.12 -0.12)">
     <use xlink:href="#DejaVuSans-6e"/>
     <use xlink:href="#DejaVuSans-73" x="63.378906"/>
    </g>
   </g>
   <g id="text_21">
    <!-- ecDNA Counts across Timelines and Groups -->
    <g style="fill: #262626" transform="translate(231.704375 17.837812) scale(0.14 -0.14)">
     <defs>
      <path id="DejaVuSans-61" d="M 2194 1759 
Q 1497 1759 1228 1600 
Q 959 1441 959 1056 
Q 959 750 1161 570 
Q 1363 391 1709 391 
Q 2188 391 2477 730 
Q 2766 1069 2766 1631 
L 2766 1759 
L 2194 1759 
z
M 3341 1997 
L 3341 0 
L 2766 0 
L 2766 531 
Q 2569 213 2275 61 
Q 1981 -91 1556 -91 
Q 1019 -91 701 211 
Q 384 513 384 1019 
Q 384 1609 779 1909 
Q 1175 2209 1959 2209 
L 2766 2209 
L 2766 2266 
Q 2766 2663 2505 2880 
Q 2244 3097 1772 3097 
Q 1472 3097 1187 3025 
Q 903 2953 641 2809 
L 641 3341 
Q 956 3463 1253 3523 
Q 1550 3584 1831 3584 
Q 2591 3584 2966 3190 
Q 3341 2797 3341 1997 
z
" transform="scale(0.015625)"/>
      <path id="DejaVuSans-64" d="M 2906 2969 
L 2906 4863 
L 3481 4863 
L 3481 0 
L 2906 0 
L 2906 525 
Q 2725 213 2448 61 
Q 2172 -91 1784 -91 
Q 1150 -91 751 415 
Q 353 922 353 1747 
Q 353 2572 751 3078 
Q 1150 3584 1784 3584 
Q 2172 3584 2448 3432 
Q 2725 3281 2906 2969 
z
M 947 1747 
Q 947 1113 1208 752 
Q 1469 391 1925 391 
Q 2381 391 2643 752 
Q 2906 1113 2906 1747 
Q 2906 2381 2643 2742 
Q 2381 3103 1925 3103 
Q 1469 3103 1208 2742 
Q 947 2381 947 1747 
z
" transform="scale(0.015625)"/>
     </defs>
     <use xlink:href="#DejaVuSans-65"/>
     <use xlink:href="#DejaVuSans-63" x="61.523438"/>
     <use xlink:href="#DejaVuSans-44" x="116.503906"/>
     <use xlink:href="#DejaVuSans-4e" x="193.505859"/>
     <use xlink:href="#DejaVuSans-41" x="268.310547"/>
     <use xlink:href="#DejaVuSans-20" x="336.71875"/>
     <use xlink:href="#DejaVuSans-43" x="368.505859"/>
     <use xlink:href="#DejaVuSans-6f" x="438.330078"/>
     <use xlink:href="#DejaVuSans-75" x="499.511719"/>
     <use xlink:href="#DejaVuSans-6e" x="562.890625"/>
     <use xlink:href="#DejaVuSans-74" x="626.269531"/>
     <use xlink:href="#DejaVuSans-73" x="665.478516"/>
     <use xlink:href="#DejaVuSans-20" x="717.578125"/>
     <use xlink:href="#DejaVuSans-61" x="749.365234"/>
     <use xlink:href="#DejaVuSans-63" x="810.644531"/>
     <use xlink:href="#DejaVuSans-72" x="865.625"/>
     <use xlink:href="#DejaVuSans-6f" x="904.488281"/>
     <use xlink:href="#DejaVuSans-73" x="965.669922"/>
     <use xlink:href="#DejaVuSans-73" x="1017.769531"/>
     <use xlink:href="#DejaVuSans-20" x="1069.869141"/>
     <use xlink:href="#DejaVuSans-54" x="1101.65625"/>
     <use xlink:href="#DejaVuSans-69" x="1159.615234"/>
     <use xlink:href="#DejaVuSans-6d" x="1187.398438"/>
     <use xlink:href="#DejaVuSans-65" x="1284.810547"/>
     <use xlink:href="#DejaVuSans-6c" x="1346.333984"/>
     <use xlink:href="#DejaVuSans-69" x="1374.117188"/>
     <use xlink:href="#DejaVuSans-6e" x="1401.900391"/>
     <use xlink:href="#DejaVuSans-65" x="1465.279297"/>
     <use xlink:href="#DejaVuSans-73" x="1526.802734"/>
     <use xlink:href="#DejaVuSans-20" x="1578.902344"/>
     <use xlink:href="#DejaVuSans-61" x="1610.689453"/>
     <use xlink:href="#DejaVuSans-6e" x="1671.96875"/>
     <use xlink:href="#DejaVuSans-64" x="1735.347656"/>
     <use xlink:href="#DejaVuSans-20" x="1798.824219"/>
     <use xlink:href="#DejaVuSans-47" x="1830.611328"/>
     <use xlink:href="#DejaVuSans-72" x="1908.101562"/>
     <use xlink:href="#DejaVuSans-6f" x="1946.964844"/>
     <use xlink:href="#DejaVuSans-75" x="2008.146484"/>
     <use xlink:href="#DejaVuSans-70" x="2071.525391"/>
     <use xlink:href="#DejaVuSans-73" x="2135.001953"/>
    </g>
   </g>
   <g id="legend_1">
    <g id="patch_22">
     <path d="M 716.98875 114.335312 
L 841.606719 114.335312 
Q 843.806719 114.335312 843.806719 112.135312 
L 843.806719 31.537812 
Q 843.806719 29.337812 841.606719 29.337812 
L 716.98875 29.337812 
Q 714.78875 29.337812 714.78875 31.537812 
L 714.78875 112.135312 
Q 714.78875 114.335312 716.98875 114.335312 
z
" style="fill: #ffffff; opacity: 0.8; stroke: #cccccc; stroke-linejoin: miter"/>
    </g>
    <g id="text_22">
     <!-- Group -->
     <g style="fill: #262626" transform="translate(761.034297 42.855937) scale(0.12 -0.12)">
      <use xlink:href="#DejaVuSans-47"/>
      <use xlink:href="#DejaVuSans-72" x="77.490234"/>
      <use xlink:href="#DejaVuSans-6f" x="116.353516"/>
      <use xlink:href="#DejaVuSans-75" x="177.535156"/>
      <use xlink:href="#DejaVuSans-70" x="240.914062"/>
     </g>
    </g>
    <g id="line2d_100">
     <path d="M 719.18875 55.359844 
L 730.18875 55.359844 
L 741.18875 55.359844 
" style="fill: none; stroke: #99ff99; stroke-width: 4; stroke-linecap: round"/>
    </g>
    <g id="text_23">
     <!-- Pre sort control -->
     <g style="fill: #262626" transform="translate(749.98875 59.209844) scale(0.11 -0.11)">
      <defs>
       <path id="DejaVuSans-50" d="M 1259 4147 
L 1259 2394 
L 2053 2394 
Q 2494 2394 2734 2622 
Q 2975 2850 2975 3272 
Q 2975 3691 2734 3919 
Q 2494 4147 2053 4147 
L 1259 4147 
z
M 628 4666 
L 2053 4666 
Q 2838 4666 3239 4311 
Q 3641 3956 3641 3272 
Q 3641 2581 3239 2228 
Q 2838 1875 2053 1875 
L 1259 1875 
L 1259 0 
L 628 0 
L 628 4666 
z
" transform="scale(0.015625)"/>
      </defs>
      <use xlink:href="#DejaVuSans-50"/>
      <use xlink:href="#DejaVuSans-72" x="58.552734"/>
      <use xlink:href="#DejaVuSans-65" x="97.416016"/>
      <use xlink:href="#DejaVuSans-20" x="158.939453"/>
      <use xlink:href="#DejaVuSans-73" x="190.726562"/>
      <use xlink:href="#DejaVuSans-6f" x="242.826172"/>
      <use xlink:href="#DejaVuSans-72" x="304.007812"/>
      <use xlink:href="#DejaVuSans-74" x="345.121094"/>
      <use xlink:href="#DejaVuSans-20" x="384.330078"/>
      <use xlink:href="#DejaVuSans-63" x="416.117188"/>
      <use xlink:href="#DejaVuSans-6f" x="471.097656"/>
      <use xlink:href="#DejaVuSans-6e" x="532.279297"/>
      <use xlink:href="#DejaVuSans-74" x="595.658203"/>
      <use xlink:href="#DejaVuSans-72" x="634.867188"/>
      <use xlink:href="#DejaVuSans-6f" x="673.730469"/>
      <use xlink:href="#DejaVuSans-6c" x="734.912109"/>
     </g>
    </g>
    <g id="line2d_101">
     <path d="M 719.18875 71.505781 
L 730.18875 71.505781 
L 741.18875 71.505781 
" style="fill: none; stroke: #ffb266; stroke-width: 4; stroke-linecap: round"/>
    </g>
    <g id="text_24">
     <!-- Low -->
     <g style="fill: #262626" transform="translate(749.98875 75.355781) scale(0.11 -0.11)">
      <defs>
       <path id="DejaVuSans-4c" d="M 628 4666 
L 1259 4666 
L 1259 531 
L 3531 531 
L 3531 0 
L 628 0 
L 628 4666 
z
" transform="scale(0.015625)"/>
       <path id="DejaVuSans-77" d="M 269 3500 
L 844 3500 
L 1563 769 
L 2278 3500 
L 2956 3500 
L 3675 769 
L 4391 3500 
L 4966 3500 
L 4050 0 
L 3372 0 
L 2619 2869 
L 1863 0 
L 1184 0 
L 269 3500 
z
" transform="scale(0.015625)"/>
      </defs>
      <use xlink:href="#DejaVuSans-4c"/>
      <use xlink:href="#DejaVuSans-6f" x="53.962891"/>
      <use xlink:href="#DejaVuSans-77" x="115.144531"/>
     </g>
    </g>
    <g id="line2d_102">
     <path d="M 719.18875 87.651719 
L 730.18875 87.651719 
L 741.18875 87.651719 
" style="fill: none; stroke: #99ccff; stroke-width: 4; stroke-linecap: round"/>
    </g>
    <g id="text_25">
     <!-- High -->
     <g style="fill: #262626" transform="translate(749.98875 91.501719) scale(0.11 -0.11)">
      <defs>
       <path id="DejaVuSans-48" d="M 628 4666 
L 1259 4666 
L 1259 2753 
L 3553 2753 
L 3553 4666 
L 4184 4666 
L 4184 0 
L 3553 0 
L 3553 2222 
L 1259 2222 
L 1259 0 
L 628 0 
L 628 4666 
z
" transform="scale(0.015625)"/>
       <path id="DejaVuSans-67" d="M 2906 1791 
Q 2906 2416 2648 2759 
Q 2391 3103 1925 3103 
Q 1463 3103 1205 2759 
Q 947 2416 947 1791 
Q 947 1169 1205 825 
Q 1463 481 1925 481 
Q 2391 481 2648 825 
Q 2906 1169 2906 1791 
z
M 3481 434 
Q 3481 -459 3084 -895 
Q 2688 -1331 1869 -1331 
Q 1566 -1331 1297 -1286 
Q 1028 -1241 775 -1147 
L 775 -588 
Q 1028 -725 1275 -790 
Q 1522 -856 1778 -856 
Q 2344 -856 2625 -561 
Q 2906 -266 2906 331 
L 2906 616 
Q 2728 306 2450 153 
Q 2172 0 1784 0 
Q 1141 0 747 490 
Q 353 981 353 1791 
Q 353 2603 747 3093 
Q 1141 3584 1784 3584 
Q 2172 3584 2450 3431 
Q 2728 3278 2906 2969 
L 2906 3500 
L 3481 3500 
L 3481 434 
z
" transform="scale(0.015625)"/>
       <path id="DejaVuSans-68" d="M 3513 2113 
L 3513 0 
L 2938 0 
L 2938 2094 
Q 2938 2591 2744 2837 
Q 2550 3084 2163 3084 
Q 1697 3084 1428 2787 
Q 1159 2491 1159 1978 
L 1159 0 
L 581 0 
L 581 4863 
L 1159 4863 
L 1159 2956 
Q 1366 3272 1645 3428 
Q 1925 3584 2291 3584 
Q 2894 3584 3203 3211 
Q 3513 2838 3513 2113 
z
" transform="scale(0.015625)"/>
      </defs>
      <use xlink:href="#DejaVuSans-48"/>
      <use xlink:href="#DejaVuSans-69" x="75.195312"/>
      <use xlink:href="#DejaVuSans-67" x="102.978516"/>
      <use xlink:href="#DejaVuSans-68" x="166.455078"/>
     </g>
    </g>
    <g id="line2d_103">
     <path d="M 719.18875 103.797656 
L 730.18875 103.797656 
L 741.18875 103.797656 
" style="fill: none; stroke: #ff99cc; stroke-width: 4; stroke-linecap: round"/>
    </g>
    <g id="text_26">
     <!-- Post sort control -->
     <g style="fill: #262626" transform="translate(749.98875 107.647656) scale(0.11 -0.11)">
      <use xlink:href="#DejaVuSans-50"/>
      <use xlink:href="#DejaVuSans-6f" x="56.677734"/>
      <use xlink:href="#DejaVuSans-73" x="117.859375"/>
      <use xlink:href="#DejaVuSans-74" x="169.958984"/>
      <use xlink:href="#DejaVuSans-20" x="209.167969"/>
      <use xlink:href="#DejaVuSans-73" x="240.955078"/>
      <use xlink:href="#DejaVuSans-6f" x="293.054688"/>
      <use xlink:href="#DejaVuSans-72" x="354.236328"/>
      <use xlink:href="#DejaVuSans-74" x="395.349609"/>
      <use xlink:href="#DejaVuSans-20" x="434.558594"/>
      <use xlink:href="#DejaVuSans-63" x="466.345703"/>
      <use xlink:href="#DejaVuSans-6f" x="521.326172"/>
      <use xlink:href="#DejaVuSans-6e" x="582.507812"/>
      <use xlink:href="#DejaVuSans-74" x="645.886719"/>
      <use xlink:href="#DejaVuSans-72" x="685.095703"/>
      <use xlink:href="#DejaVuSans-6f" x="723.958984"/>
      <use xlink:href="#DejaVuSans-6c" x="785.140625"/>
     </g>
    </g>
   </g>
  </g>
 </g>
 <defs>
  <clipPath id="p35da77f06f">
   <rect x="60.30875" y="23.837812" width="648.98" height="499.66875"/>
  </clipPath>
 </defs>
</svg>
